<mxfile host="app.diagrams.net" agent="Mozilla/5.0 (Windows NT 10.0; Win64; x64) AppleWebKit/537.36 (KHTML, like Gecko) Chrome/134.0.0.0 Safari/537.36" version="26.1.0">
  <diagram name="Page-1" id="2YBvvXClWsGukQMizWep">
    <mxGraphModel dx="1320" dy="1828" grid="1" gridSize="10" guides="1" tooltips="1" connect="1" arrows="1" fold="1" page="1" pageScale="1" pageWidth="850" pageHeight="1100" math="0" shadow="0">
      <root>
        <mxCell id="0" />
        <mxCell id="1" parent="0" />
        <mxCell id="Si6Ath9AnR04ZNwXEi1t-1" value="&lt;ul type=&quot;disc&quot; style=&quot;margin-top:0cm&quot;&gt;&lt;br/&gt; &lt;li class=&quot;MsoNormal&quot;&gt;Le joueur joue un coup invalide car ce coup provoque une collision.&lt;/li&gt;&lt;br/&gt;&lt;/ul&gt;" style="text;html=1;align=center;verticalAlign=middle;whiteSpace=wrap;rounded=0;" vertex="1" parent="1">
          <mxGeometry x="10" y="20" width="400" height="30" as="geometry" />
        </mxCell>
        <mxCell id="Si6Ath9AnR04ZNwXEi1t-14" value="" style="shape=umlLifeline;perimeter=lifelinePerimeter;whiteSpace=wrap;html=1;container=1;dropTarget=0;collapsible=0;recursiveResize=0;outlineConnect=0;portConstraint=eastwest;newEdgeStyle={&quot;curved&quot;:0,&quot;rounded&quot;:0};participant=umlActor;fillColor=#ffe6cc;strokeColor=#d79b00;" vertex="1" parent="1">
          <mxGeometry x="60" y="170" width="20" height="420" as="geometry" />
        </mxCell>
        <mxCell id="Si6Ath9AnR04ZNwXEi1t-15" value="Joueur" style="text;html=1;align=center;verticalAlign=middle;resizable=0;points=[];autosize=1;strokeColor=none;fillColor=none;" vertex="1" parent="1">
          <mxGeometry x="40" y="130" width="60" height="30" as="geometry" />
        </mxCell>
        <mxCell id="Si6Ath9AnR04ZNwXEi1t-16" value="FormPartie" style="shape=umlLifeline;perimeter=lifelinePerimeter;whiteSpace=wrap;html=1;container=1;dropTarget=0;collapsible=0;recursiveResize=0;outlineConnect=0;portConstraint=eastwest;newEdgeStyle={&quot;curved&quot;:0,&quot;rounded&quot;:0};fillColor=#ffe6cc;strokeColor=#d79b00;" vertex="1" parent="1">
          <mxGeometry x="210" y="170" width="100" height="420" as="geometry" />
        </mxCell>
        <mxCell id="Si6Ath9AnR04ZNwXEi1t-17" value="" style="html=1;points=[[0,0,0,0,5],[0,1,0,0,-5],[1,0,0,0,5],[1,1,0,0,-5]];perimeter=orthogonalPerimeter;outlineConnect=0;targetShapes=umlLifeline;portConstraint=eastwest;newEdgeStyle={&quot;curved&quot;:0,&quot;rounded&quot;:0};fillColor=#ffe6cc;strokeColor=#d79b00;" vertex="1" parent="Si6Ath9AnR04ZNwXEi1t-16">
          <mxGeometry x="45" y="80" width="10" height="210" as="geometry" />
        </mxCell>
        <mxCell id="Si6Ath9AnR04ZNwXEi1t-18" value="" style="endArrow=open;endFill=1;endSize=12;html=1;rounded=0;fillColor=#ffe6cc;strokeColor=#d79b00;" edge="1" parent="1" source="Si6Ath9AnR04ZNwXEi1t-14" target="Si6Ath9AnR04ZNwXEi1t-16">
          <mxGeometry width="160" relative="1" as="geometry">
            <mxPoint x="100" y="300" as="sourcePoint" />
            <mxPoint x="210" y="300" as="targetPoint" />
            <Array as="points">
              <mxPoint x="150" y="250" />
            </Array>
          </mxGeometry>
        </mxCell>
        <mxCell id="Si6Ath9AnR04ZNwXEi1t-19" value="caseOnClick()" style="edgeLabel;html=1;align=center;verticalAlign=middle;resizable=0;points=[];" vertex="1" connectable="0" parent="Si6Ath9AnR04ZNwXEi1t-18">
          <mxGeometry x="-0.4976" y="1" relative="1" as="geometry">
            <mxPoint x="36" as="offset" />
          </mxGeometry>
        </mxCell>
        <mxCell id="Si6Ath9AnR04ZNwXEi1t-20" value="Jeu Echec" style="shape=umlLifeline;perimeter=lifelinePerimeter;whiteSpace=wrap;html=1;container=1;dropTarget=0;collapsible=0;recursiveResize=0;outlineConnect=0;portConstraint=eastwest;newEdgeStyle={&quot;curved&quot;:0,&quot;rounded&quot;:0};fillColor=#ffe6cc;strokeColor=#d79b00;" vertex="1" parent="1">
          <mxGeometry x="440" y="170" width="100" height="420" as="geometry" />
        </mxCell>
        <mxCell id="Si6Ath9AnR04ZNwXEi1t-21" value="" style="html=1;points=[[0,0,0,0,5],[0,1,0,0,-5],[1,0,0,0,5],[1,1,0,0,-5]];perimeter=orthogonalPerimeter;outlineConnect=0;targetShapes=umlLifeline;portConstraint=eastwest;newEdgeStyle={&quot;curved&quot;:0,&quot;rounded&quot;:0};fillColor=#ffe6cc;strokeColor=#d79b00;" vertex="1" parent="Si6Ath9AnR04ZNwXEi1t-20">
          <mxGeometry x="45" y="100" width="10" height="110" as="geometry" />
        </mxCell>
        <mxCell id="Si6Ath9AnR04ZNwXEi1t-22" style="edgeStyle=orthogonalEdgeStyle;rounded=0;orthogonalLoop=1;jettySize=auto;html=1;curved=0;endArrow=open;endFill=0;fillColor=#ffe6cc;strokeColor=#d79b00;" edge="1" parent="1">
          <mxGeometry relative="1" as="geometry">
            <mxPoint x="265" y="310" as="sourcePoint" />
            <mxPoint x="489.5" y="310" as="targetPoint" />
            <Array as="points">
              <mxPoint x="390" y="310" />
              <mxPoint x="390" y="310" />
            </Array>
          </mxGeometry>
        </mxCell>
        <mxCell id="Si6Ath9AnR04ZNwXEi1t-23" value="joueurCoup(xDebut,xFin,yDebut,yFin)" style="edgeLabel;html=1;align=center;verticalAlign=middle;resizable=0;points=[];" vertex="1" connectable="0" parent="Si6Ath9AnR04ZNwXEi1t-22">
          <mxGeometry x="-0.5177" y="-2" relative="1" as="geometry">
            <mxPoint x="61" y="-2" as="offset" />
          </mxGeometry>
        </mxCell>
        <mxCell id="Si6Ath9AnR04ZNwXEi1t-24" value="" style="endArrow=none;endFill=1;endSize=12;html=1;rounded=0;startArrow=open;startFill=0;fillColor=#f8cecc;strokeColor=#b85450;exitX=0.5;exitY=0.238;exitDx=0;exitDy=0;exitPerimeter=0;" edge="1" parent="1" source="Si6Ath9AnR04ZNwXEi1t-17">
          <mxGeometry width="160" relative="1" as="geometry">
            <mxPoint x="270" y="300" as="sourcePoint" />
            <mxPoint x="260" y="250" as="targetPoint" />
            <Array as="points">
              <mxPoint x="310" y="300" />
              <mxPoint x="310" y="250" />
            </Array>
          </mxGeometry>
        </mxCell>
        <mxCell id="Si6Ath9AnR04ZNwXEi1t-25" value="estDeuxiemeClick()" style="edgeLabel;html=1;align=center;verticalAlign=middle;resizable=0;points=[];" vertex="1" connectable="0" parent="Si6Ath9AnR04ZNwXEi1t-24">
          <mxGeometry x="-0.0089" y="-3" relative="1" as="geometry">
            <mxPoint as="offset" />
          </mxGeometry>
        </mxCell>
        <mxCell id="Si6Ath9AnR04ZNwXEi1t-26" value="Modele" style="shape=umlLifeline;perimeter=lifelinePerimeter;whiteSpace=wrap;html=1;container=1;dropTarget=0;collapsible=0;recursiveResize=0;outlineConnect=0;portConstraint=eastwest;newEdgeStyle={&quot;curved&quot;:0,&quot;rounded&quot;:0};fillColor=#ffe6cc;strokeColor=#d79b00;" vertex="1" parent="1">
          <mxGeometry x="660" y="170" width="100" height="420" as="geometry" />
        </mxCell>
        <mxCell id="Si6Ath9AnR04ZNwXEi1t-27" value="" style="html=1;points=[[0,0,0,0,5],[0,1,0,0,-5],[1,0,0,0,5],[1,1,0,0,-5]];perimeter=orthogonalPerimeter;outlineConnect=0;targetShapes=umlLifeline;portConstraint=eastwest;newEdgeStyle={&quot;curved&quot;:0,&quot;rounded&quot;:0};fillColor=#ffe6cc;strokeColor=#d79b00;" vertex="1" parent="Si6Ath9AnR04ZNwXEi1t-26">
          <mxGeometry x="45" y="100" width="10" height="110" as="geometry" />
        </mxCell>
        <mxCell id="Si6Ath9AnR04ZNwXEi1t-28" value="Partie" style="shape=umlLifeline;perimeter=lifelinePerimeter;whiteSpace=wrap;html=1;container=1;dropTarget=0;collapsible=0;recursiveResize=0;outlineConnect=0;portConstraint=eastwest;newEdgeStyle={&quot;curved&quot;:0,&quot;rounded&quot;:0};fillColor=#ffe6cc;strokeColor=#d79b00;" vertex="1" parent="1">
          <mxGeometry x="880" y="170" width="100" height="420" as="geometry" />
        </mxCell>
        <mxCell id="Si6Ath9AnR04ZNwXEi1t-29" value="" style="html=1;points=[[0,0,0,0,5],[0,1,0,0,-5],[1,0,0,0,5],[1,1,0,0,-5]];perimeter=orthogonalPerimeter;outlineConnect=0;targetShapes=umlLifeline;portConstraint=eastwest;newEdgeStyle={&quot;curved&quot;:0,&quot;rounded&quot;:0};fillColor=#ffe6cc;strokeColor=#d79b00;" vertex="1" parent="Si6Ath9AnR04ZNwXEi1t-28">
          <mxGeometry x="45" y="100" width="10" height="160" as="geometry" />
        </mxCell>
        <mxCell id="Si6Ath9AnR04ZNwXEi1t-30" value="Plateau" style="shape=umlLifeline;perimeter=lifelinePerimeter;whiteSpace=wrap;html=1;container=1;dropTarget=0;collapsible=0;recursiveResize=0;outlineConnect=0;portConstraint=eastwest;newEdgeStyle={&quot;curved&quot;:0,&quot;rounded&quot;:0};fillColor=#ffe6cc;strokeColor=#d79b00;" vertex="1" parent="1">
          <mxGeometry x="1230" y="170" width="100" height="420" as="geometry" />
        </mxCell>
        <mxCell id="Si6Ath9AnR04ZNwXEi1t-31" value="" style="html=1;points=[[0,0,0,0,5],[0,1,0,0,-5],[1,0,0,0,5],[1,1,0,0,-5]];perimeter=orthogonalPerimeter;outlineConnect=0;targetShapes=umlLifeline;portConstraint=eastwest;newEdgeStyle={&quot;curved&quot;:0,&quot;rounded&quot;:0};fillColor=#ffe6cc;strokeColor=#d79b00;" vertex="1" parent="Si6Ath9AnR04ZNwXEi1t-30">
          <mxGeometry x="45" y="100" width="10" height="110" as="geometry" />
        </mxCell>
        <mxCell id="Si6Ath9AnR04ZNwXEi1t-32" value="Piece" style="shape=umlLifeline;perimeter=lifelinePerimeter;whiteSpace=wrap;html=1;container=1;dropTarget=0;collapsible=0;recursiveResize=0;outlineConnect=0;portConstraint=eastwest;newEdgeStyle={&quot;curved&quot;:0,&quot;rounded&quot;:0};fillColor=#ffe6cc;strokeColor=#d79b00;" vertex="1" parent="1">
          <mxGeometry x="1535" y="170" width="100" height="420" as="geometry" />
        </mxCell>
        <mxCell id="Si6Ath9AnR04ZNwXEi1t-33" value="" style="html=1;points=[[0,0,0,0,5],[0,1,0,0,-5],[1,0,0,0,5],[1,1,0,0,-5]];perimeter=orthogonalPerimeter;outlineConnect=0;targetShapes=umlLifeline;portConstraint=eastwest;newEdgeStyle={&quot;curved&quot;:0,&quot;rounded&quot;:0};fillColor=#ffe6cc;strokeColor=#d79b00;" vertex="1" parent="Si6Ath9AnR04ZNwXEi1t-32">
          <mxGeometry x="45" y="100" width="10" height="110" as="geometry" />
        </mxCell>
        <mxCell id="Si6Ath9AnR04ZNwXEi1t-34" value="Tour" style="shape=umlLifeline;perimeter=lifelinePerimeter;whiteSpace=wrap;html=1;container=1;dropTarget=0;collapsible=0;recursiveResize=0;outlineConnect=0;portConstraint=eastwest;newEdgeStyle={&quot;curved&quot;:0,&quot;rounded&quot;:0};fillColor=#ffe6cc;strokeColor=#d79b00;" vertex="1" parent="1">
          <mxGeometry x="1845" y="170" width="100" height="420" as="geometry" />
        </mxCell>
        <mxCell id="Si6Ath9AnR04ZNwXEi1t-35" value="" style="html=1;points=[[0,0,0,0,5],[0,1,0,0,-5],[1,0,0,0,5],[1,1,0,0,-5]];perimeter=orthogonalPerimeter;outlineConnect=0;targetShapes=umlLifeline;portConstraint=eastwest;newEdgeStyle={&quot;curved&quot;:0,&quot;rounded&quot;:0};fillColor=#ffe6cc;strokeColor=#d79b00;" vertex="1" parent="Si6Ath9AnR04ZNwXEi1t-34">
          <mxGeometry x="45" y="100" width="10" height="110" as="geometry" />
        </mxCell>
        <mxCell id="Si6Ath9AnR04ZNwXEi1t-39" style="edgeStyle=orthogonalEdgeStyle;rounded=0;orthogonalLoop=1;jettySize=auto;html=1;curved=0;endArrow=open;endFill=0;fillColor=#ffe6cc;strokeColor=#d79b00;" edge="1" parent="1">
          <mxGeometry relative="1" as="geometry">
            <mxPoint x="490.5" y="330" as="sourcePoint" />
            <mxPoint x="715" y="330" as="targetPoint" />
            <Array as="points">
              <mxPoint x="615.5" y="330" />
              <mxPoint x="615.5" y="330" />
            </Array>
          </mxGeometry>
        </mxCell>
        <mxCell id="Si6Ath9AnR04ZNwXEi1t-40" value="joueurCoup(xDebut,xFin,yDebut,yFin)" style="edgeLabel;html=1;align=center;verticalAlign=middle;resizable=0;points=[];" vertex="1" connectable="0" parent="Si6Ath9AnR04ZNwXEi1t-39">
          <mxGeometry x="-0.5177" y="-2" relative="1" as="geometry">
            <mxPoint x="61" y="-2" as="offset" />
          </mxGeometry>
        </mxCell>
        <mxCell id="Si6Ath9AnR04ZNwXEi1t-41" style="edgeStyle=orthogonalEdgeStyle;rounded=0;orthogonalLoop=1;jettySize=auto;html=1;curved=0;endArrow=open;endFill=0;fillColor=#ffe6cc;strokeColor=#d79b00;" edge="1" parent="1">
          <mxGeometry relative="1" as="geometry">
            <mxPoint x="705" y="340" as="sourcePoint" />
            <mxPoint x="929.5" y="340" as="targetPoint" />
            <Array as="points">
              <mxPoint x="830" y="340" />
              <mxPoint x="830" y="340" />
            </Array>
          </mxGeometry>
        </mxCell>
        <mxCell id="Si6Ath9AnR04ZNwXEi1t-42" value="joueurCoup(xDebut,xFin,yDebut,yFin)" style="edgeLabel;html=1;align=center;verticalAlign=middle;resizable=0;points=[];" vertex="1" connectable="0" parent="Si6Ath9AnR04ZNwXEi1t-41">
          <mxGeometry x="-0.5177" y="-2" relative="1" as="geometry">
            <mxPoint x="61" y="-2" as="offset" />
          </mxGeometry>
        </mxCell>
        <mxCell id="Si6Ath9AnR04ZNwXEi1t-49" style="edgeStyle=orthogonalEdgeStyle;rounded=0;orthogonalLoop=1;jettySize=auto;html=1;curved=0;endArrow=open;endFill=0;fillColor=#e1d5e7;strokeColor=#9673a6;dashed=1;" edge="1" parent="1">
          <mxGeometry relative="1" as="geometry">
            <mxPoint x="1575" y="440" as="sourcePoint" />
            <mxPoint x="1285" y="440" as="targetPoint" />
            <Array as="points">
              <mxPoint x="1485" y="440" />
              <mxPoint x="1485" y="440" />
            </Array>
          </mxGeometry>
        </mxCell>
        <mxCell id="Si6Ath9AnR04ZNwXEi1t-50" value="return False :" style="edgeLabel;html=1;align=center;verticalAlign=middle;resizable=0;points=[];" vertex="1" connectable="0" parent="Si6Ath9AnR04ZNwXEi1t-49">
          <mxGeometry x="-0.5177" y="-2" relative="1" as="geometry">
            <mxPoint x="-44" y="-2" as="offset" />
          </mxGeometry>
        </mxCell>
        <mxCell id="Si6Ath9AnR04ZNwXEi1t-51" style="edgeStyle=orthogonalEdgeStyle;rounded=0;orthogonalLoop=1;jettySize=auto;html=1;curved=0;endArrow=open;endFill=0;fillColor=#e1d5e7;strokeColor=#9673a6;dashed=1;" edge="1" parent="1">
          <mxGeometry relative="1" as="geometry">
            <mxPoint x="1280" y="460" as="sourcePoint" />
            <mxPoint x="930" y="460" as="targetPoint" />
            <Array as="points">
              <mxPoint x="1210" y="460" />
              <mxPoint x="1210" y="460" />
            </Array>
          </mxGeometry>
        </mxCell>
        <mxCell id="Si6Ath9AnR04ZNwXEi1t-52" value="return False :" style="edgeLabel;html=1;align=center;verticalAlign=middle;resizable=0;points=[];" vertex="1" connectable="0" parent="Si6Ath9AnR04ZNwXEi1t-51">
          <mxGeometry x="-0.5177" y="-2" relative="1" as="geometry">
            <mxPoint x="-44" y="-2" as="offset" />
          </mxGeometry>
        </mxCell>
        <mxCell id="Si6Ath9AnR04ZNwXEi1t-53" style="edgeStyle=orthogonalEdgeStyle;rounded=0;orthogonalLoop=1;jettySize=auto;html=1;curved=0;endArrow=open;endFill=0;fillColor=#e1d5e7;strokeColor=#9673a6;dashed=1;" edge="1" parent="1">
          <mxGeometry relative="1" as="geometry">
            <mxPoint x="760" y="440" as="sourcePoint" />
            <mxPoint x="720" y="440" as="targetPoint" />
            <Array as="points">
              <mxPoint x="920" y="440" />
              <mxPoint x="920" y="440" />
            </Array>
          </mxGeometry>
        </mxCell>
        <mxCell id="Si6Ath9AnR04ZNwXEi1t-54" value="return False :" style="edgeLabel;html=1;align=center;verticalAlign=middle;resizable=0;points=[];" vertex="1" connectable="0" parent="Si6Ath9AnR04ZNwXEi1t-53">
          <mxGeometry x="-0.5177" y="-2" relative="1" as="geometry">
            <mxPoint x="-44" y="-2" as="offset" />
          </mxGeometry>
        </mxCell>
        <mxCell id="Si6Ath9AnR04ZNwXEi1t-55" style="edgeStyle=orthogonalEdgeStyle;rounded=0;orthogonalLoop=1;jettySize=auto;html=1;curved=0;endArrow=open;endFill=0;fillColor=#e1d5e7;strokeColor=#9673a6;dashed=1;" edge="1" parent="1">
          <mxGeometry relative="1" as="geometry">
            <mxPoint x="540" y="440" as="sourcePoint" />
            <mxPoint x="500" y="440" as="targetPoint" />
            <Array as="points">
              <mxPoint x="700" y="440" />
              <mxPoint x="700" y="440" />
            </Array>
          </mxGeometry>
        </mxCell>
        <mxCell id="Si6Ath9AnR04ZNwXEi1t-56" value="return False :" style="edgeLabel;html=1;align=center;verticalAlign=middle;resizable=0;points=[];" vertex="1" connectable="0" parent="Si6Ath9AnR04ZNwXEi1t-55">
          <mxGeometry x="-0.5177" y="-2" relative="1" as="geometry">
            <mxPoint x="-44" y="-2" as="offset" />
          </mxGeometry>
        </mxCell>
        <mxCell id="Si6Ath9AnR04ZNwXEi1t-57" style="edgeStyle=orthogonalEdgeStyle;rounded=0;orthogonalLoop=1;jettySize=auto;html=1;curved=0;endArrow=open;endFill=0;fillColor=#e1d5e7;strokeColor=#9673a6;dashed=1;" edge="1" parent="1">
          <mxGeometry relative="1" as="geometry">
            <mxPoint x="320" y="440" as="sourcePoint" />
            <mxPoint x="280" y="440" as="targetPoint" />
            <Array as="points">
              <mxPoint x="480" y="440" />
              <mxPoint x="480" y="440" />
            </Array>
          </mxGeometry>
        </mxCell>
        <mxCell id="Si6Ath9AnR04ZNwXEi1t-58" value="return False :" style="edgeLabel;html=1;align=center;verticalAlign=middle;resizable=0;points=[];" vertex="1" connectable="0" parent="Si6Ath9AnR04ZNwXEi1t-57">
          <mxGeometry x="-0.5177" y="-2" relative="1" as="geometry">
            <mxPoint x="-44" y="-2" as="offset" />
          </mxGeometry>
        </mxCell>
        <mxCell id="Si6Ath9AnR04ZNwXEi1t-60" style="edgeStyle=orthogonalEdgeStyle;rounded=0;orthogonalLoop=1;jettySize=auto;html=1;curved=0;endArrow=open;endFill=0;fillColor=#ffe6cc;strokeColor=#d79b00;" edge="1" parent="1">
          <mxGeometry relative="1" as="geometry">
            <mxPoint x="1285" y="360" as="sourcePoint" />
            <mxPoint x="1589.5" y="360" as="targetPoint" />
            <Array as="points">
              <mxPoint x="1490" y="360" />
              <mxPoint x="1490" y="360" />
            </Array>
          </mxGeometry>
        </mxCell>
        <mxCell id="Si6Ath9AnR04ZNwXEi1t-61" value="coupEstPossible(Coord debut, Coord fin, int tour)" style="edgeLabel;html=1;align=center;verticalAlign=middle;resizable=0;points=[];" vertex="1" connectable="0" parent="Si6Ath9AnR04ZNwXEi1t-60">
          <mxGeometry x="-0.5177" y="-2" relative="1" as="geometry">
            <mxPoint x="77" y="-2" as="offset" />
          </mxGeometry>
        </mxCell>
        <mxCell id="Si6Ath9AnR04ZNwXEi1t-62" style="edgeStyle=orthogonalEdgeStyle;rounded=0;orthogonalLoop=1;jettySize=auto;html=1;curved=0;endArrow=open;endFill=0;fillColor=#ffe6cc;strokeColor=#d79b00;" edge="1" parent="1">
          <mxGeometry relative="1" as="geometry">
            <mxPoint x="1590" y="368.57" as="sourcePoint" />
            <mxPoint x="1894.5" y="368.57" as="targetPoint" />
            <Array as="points">
              <mxPoint x="1795" y="368.57" />
              <mxPoint x="1795" y="368.57" />
            </Array>
          </mxGeometry>
        </mxCell>
        <mxCell id="Si6Ath9AnR04ZNwXEi1t-63" value="coupEstPossible(Coord debut, Coord fin, int tour)" style="edgeLabel;html=1;align=center;verticalAlign=middle;resizable=0;points=[];" vertex="1" connectable="0" parent="Si6Ath9AnR04ZNwXEi1t-62">
          <mxGeometry x="-0.5177" y="-2" relative="1" as="geometry">
            <mxPoint x="77" y="-2" as="offset" />
          </mxGeometry>
        </mxCell>
        <mxCell id="Si6Ath9AnR04ZNwXEi1t-66" style="edgeStyle=orthogonalEdgeStyle;rounded=0;orthogonalLoop=1;jettySize=auto;html=1;curved=0;endArrow=open;endFill=0;fillColor=#e1d5e7;strokeColor=#9673a6;dashed=1;" edge="1" parent="1">
          <mxGeometry relative="1" as="geometry">
            <mxPoint x="1885" y="440" as="sourcePoint" />
            <mxPoint x="1595" y="440" as="targetPoint" />
            <Array as="points">
              <mxPoint x="1795" y="440" />
              <mxPoint x="1795" y="440" />
            </Array>
          </mxGeometry>
        </mxCell>
        <mxCell id="Si6Ath9AnR04ZNwXEi1t-67" value="return False :" style="edgeLabel;html=1;align=center;verticalAlign=middle;resizable=0;points=[];" vertex="1" connectable="0" parent="Si6Ath9AnR04ZNwXEi1t-66">
          <mxGeometry x="-0.5177" y="-2" relative="1" as="geometry">
            <mxPoint x="-44" y="-2" as="offset" />
          </mxGeometry>
        </mxCell>
        <mxCell id="Si6Ath9AnR04ZNwXEi1t-68" value="Mouvement" style="shape=umlLifeline;perimeter=lifelinePerimeter;whiteSpace=wrap;html=1;container=1;dropTarget=0;collapsible=0;recursiveResize=0;outlineConnect=0;portConstraint=eastwest;newEdgeStyle={&quot;curved&quot;:0,&quot;rounded&quot;:0};fillColor=#ffe6cc;strokeColor=#d79b00;" vertex="1" parent="1">
          <mxGeometry x="1160" y="324.29" width="100" height="90" as="geometry" />
        </mxCell>
        <mxCell id="Si6Ath9AnR04ZNwXEi1t-69" style="edgeStyle=orthogonalEdgeStyle;rounded=0;orthogonalLoop=1;jettySize=auto;html=1;curved=0;endArrow=open;endFill=0;fillColor=#ffe6cc;strokeColor=#d79b00;" edge="1" parent="1">
          <mxGeometry relative="1" as="geometry">
            <mxPoint x="940" y="344.29" as="sourcePoint" />
            <mxPoint x="1160" y="344.29" as="targetPoint" />
            <Array as="points" />
          </mxGeometry>
        </mxCell>
        <mxCell id="Si6Ath9AnR04ZNwXEi1t-70" value="Mouvement(xDebut,xFin,yDebut,yFin)" style="edgeLabel;html=1;align=center;verticalAlign=middle;resizable=0;points=[];" vertex="1" connectable="0" parent="Si6Ath9AnR04ZNwXEi1t-69">
          <mxGeometry x="-0.5177" y="-2" relative="1" as="geometry">
            <mxPoint x="61" y="-2" as="offset" />
          </mxGeometry>
        </mxCell>
        <mxCell id="Si6Ath9AnR04ZNwXEi1t-71" value="" style="endArrow=open;endFill=1;endSize=12;html=1;rounded=0;fillColor=#ffe6cc;strokeColor=#d79b00;dashed=1;" edge="1" parent="1">
          <mxGeometry width="160" relative="1" as="geometry">
            <mxPoint x="1210" y="414.29" as="sourcePoint" />
            <mxPoint x="930" y="414.29" as="targetPoint" />
          </mxGeometry>
        </mxCell>
        <mxCell id="Si6Ath9AnR04ZNwXEi1t-72" style="edgeStyle=orthogonalEdgeStyle;rounded=0;orthogonalLoop=1;jettySize=auto;html=1;curved=0;endArrow=open;endFill=0;fillColor=#ffe6cc;strokeColor=#d79b00;" edge="1" parent="1">
          <mxGeometry relative="1" as="geometry">
            <mxPoint x="930" y="430" as="sourcePoint" />
            <mxPoint x="1284.5" y="430" as="targetPoint" />
            <Array as="points">
              <mxPoint x="1135" y="430" />
              <mxPoint x="1135" y="430" />
            </Array>
          </mxGeometry>
        </mxCell>
        <mxCell id="Si6Ath9AnR04ZNwXEi1t-73" value="coupEstPossible(Coord debut, Coord fin, int tour)" style="edgeLabel;html=1;align=center;verticalAlign=middle;resizable=0;points=[];" vertex="1" connectable="0" parent="Si6Ath9AnR04ZNwXEi1t-72">
          <mxGeometry x="-0.5177" y="-2" relative="1" as="geometry">
            <mxPoint x="77" y="-2" as="offset" />
          </mxGeometry>
        </mxCell>
      </root>
    </mxGraphModel>
  </diagram>
</mxfile>
